# xmcd CD database generated by RipIT
#
# Track frame offsets:
# 150
# 17813
# 30834
# 50011
# 75350
# 91848
# 109294
# 123784
# 144094
# 157405
# 173422
# 193818
#
# Disc length: 2792 seconds
#
# Revision: 0
# Processed by: cddbd v1.5.2PL0 Copyright (c) Steve Scherf et al.
# Submitted via: RipIT 3.9.0 www.suwald.com/ripit/ripit.html on 2016-10-23 at 09:24
#
DISCID=8c0ae60c
DTITLE=Seth Walker - Gotta get back
DYEAR=2016
DGENRE=0
TTITLE0=High time
TTITLE1=Fire in the belly
TTITLE2=Back around
TTITLE3=Call my name
TTITLE4=Movin' on
TTITLE5=Way past midnight
TTITLE6=Home again
TTITLE7=The sound of your voice
TTITLE8=Turn this thing around
TTITLE9=Dreamer
TTITLE10=Gotta get back
TTITLE11=Blow wind blow
EXTD=
EXTT0=
EXTT1=
EXTT2=
EXTT3=
EXTT4=
EXTT5=
EXTT6=
EXTT7=
EXTT8=
EXTT9=
EXTT10=
EXTT11=
PLAYORDER=
